<svg xmlns="http://www.w3.org/2000/svg" xmlns:xlink="http://www.w3.org/1999/xlink" fill="none" version="1.1" width="600" height="600" viewBox="0 0 600 600"><defs><clipPath id="master_svg0_572_0609"><rect x="0" y="0" width="600" height="600" rx="0"/></clipPath></defs><g clip-path="url(#master_svg0_572_0609)"><g transform="matrix(1,0,0,-1,0,1146.7587890625)"><g><rect x="26.98222541809082" y="573.37939453125" width="546.9650268554688" height="546.5517578125" rx="87.1453857421875" fill="#2A9B48" fill-opacity="1"/><rect x="13.778379440307617" y="560.1755485534668" width="573.3727188110352" height="572.9594497680664" rx="100.3492317199707" fill-opacity="0" stroke-opacity="1" stroke="#000000" fill="none" stroke-width="26.407691955566406"/></g></g><g><path d="M483.8329921875,101.35693359375L483.8329921875,498.64293359375L388.3519921875,498.64293359375L366.7489921875,299.91893359375L341.2589921875,452.25793359375L259.1719921875,452.25793359375L233.6819921875,299.91893359375L212.0799921875,498.64293359375L116.1669921875,498.64293359375L116.1669921875,101.35693359375L233.6819921875,101.35693359375L298.12199218750004,217.46193359375002L366.74999218749997,101.35693359375L483.8329921875,101.35693359375Z" fill="#FAD409" fill-opacity="1"/><path d="M507.8329921875,522.6429335937501L507.8329921875,101.35693912444L507.8329921875,77.35693359375L353.0569921875,77.35693359375L298.7769921875,169.18713359375L247.8099921875,77.35693359375L92.1669921875,77.35693359375L92.1669921875,522.6429335937501L233.6129921875,522.6429335937501L238.7329921875,475.53493359375L238.8539921875,476.25793359375L361.57699218749997,476.25793359375L361.69899218750004,475.53293359375L366.8199921875,522.6429335937501L507.8329921875,522.6429335937501ZM298.12199218750004,217.46193359375002L312.2779921875,193.51223359375L366.74999218749997,101.35693359375L459.8329921875,101.35692806306L483.8329921875,101.35693359375L483.8329921875,125.35693359375L483.8329921875,474.64293359375L483.8329921875,498.64293359375L388.3519921875,498.64293359375L376.3319921875,388.07393359375L366.7489921875,299.91893359375L352.1149921875,387.37693359375L341.2589921875,452.25793359375L259.1719921875,452.25793359375L248.3159921875,387.37793359375L233.6819921875,299.91893359375L224.09899218750002,388.07493359375L212.0799921875,498.64293359375L116.1669921875,498.64293359375L116.1669921875,101.35693359375L233.6819921875,101.35693359375L284.6209921875,193.13673359375L298.12199218750004,217.46193359375002Z" fill-rule="evenodd" fill="#000000" fill-opacity="1"/></g><g transform="matrix(-1,0,0,-1,1135.689697265625,1051.9833984375)"><path d="M567.8448486328125,771.13769921875L626.8233486328124,831.67969921875L601.4708486328125,944.11869921875Q669.6038486328125,935.4366992187499,733.8378486328124,880.69469921875Q798.0728486328126,825.95369921875,858.4088486328126,725.15369921875L923.1428486328125,805.1586992187499L923.1428486328125,525.99169921875L699.9808486328125,655.36169921875L771.5288486328125,682.59769921875Q747.6578486328125,713.00569921875,674.5648486328125,742.07169921875Q601.4708486328125,771.13769921875,567.8448486328125,771.13769921875Z" fill="#2A9B48" fill-opacity="1"/><path d="M674.5648486328125,742.07169921875Q727.9348486328125,720.84869921875,755.0618486328125,698.91069921875Q765.0878486328124,690.80269921875,771.5288486328125,682.59769921875L750.5338486328125,674.60569921875L725.3808486328126,665.03069921875L699.9808486328125,655.36169921875L723.4938486328125,641.73069921875L923.1428486328125,525.99169921875L923.1428486328125,805.1586992187499L902.0388486328125,779.0756992187501L872.5268486328125,742.60169921875L858.4088486328126,725.15369921875Q852.5708486328125,734.90669921875,846.6958486328125,744.22869921875Q791.8568486328124,831.24969921875,733.8378486328124,880.69469921875Q680.2948486328125,926.3246992187501,624.0440486328125,939.95269921875Q612.8115486328124,942.67369921875,601.4708486328125,944.11869921875L606.4479486328125,922.04569921875L626.8233486328124,831.67969921875L586.8816486328125,790.67969921875L567.8448486328125,771.13769921875Q578.9076486328125,771.13769921875,594.2425486328125,767.99169921875Q625.5184486328125,761.57469921875,674.5648486328125,742.07169921875ZM805.8328486328126,673.07469921875L748.8938486328125,651.39969921875L902.0388486328125,562.61959921875L902.0388486328125,745.52569921875L855.8148486328125,688.39669921875L840.3008486328125,714.31469921875Q781.7458486328126,812.13969921875,720.1498486328126,864.6326992187501Q675.4158486328125,902.7546992187499,629.2963486328125,916.6586992187499L649.9285486328125,825.15469921875L611.4129486328125,785.61769921875Q641.2924486328125,778.0136992187499,682.3628486328125,761.68169921875Q760.7448486328125,730.5136992187499,788.1288486328125,695.62869921875L805.8328486328126,673.07469921875Z" fill-rule="evenodd" fill="#000000" fill-opacity="1"/></g></g></svg>